<svg xmlns="http://www.w3.org/2000/svg" xmlns:xlink="http://www.w3.org/1999/xlink" contentStyleType="text/css" height="334px" preserveAspectRatio="none" style="width:813px;height:334px;background:#FFFFFF;" version="1.1" viewBox="0 0 813 334" width="813px" zoomAndPan="magnify"><title>Simplified example of how Alice's edge device dial of service would be processed in OpenZiti fabric</title><defs/><g><text fill="#000000" font-family="sans-serif" font-size="14" font-weight="bold" lengthAdjust="spacing" textLength="785.5791" x="10" y="27.9951">Simplified example of how Alice's edge device dial of service would be processed in OpenZiti fabric</text><rect fill="none" height="162.7969" style="stroke:#000000;stroke-width:1.5;" width="709.4375" x="48.5708" y="119.7266"/><line style="stroke:#181818;stroke-width:0.5;stroke-dasharray:5.0,5.0;" x1="81.5708" x2="81.5708" y1="73.5938" y2="299.5234"/><line style="stroke:#181818;stroke-width:0.5;stroke-dasharray:5.0,5.0;" x1="433.377" x2="433.377" y1="73.5938" y2="299.5234"/><line style="stroke:#181818;stroke-width:0.5;stroke-dasharray:5.0,5.0;" x1="515.5498" x2="515.5498" y1="73.5938" y2="299.5234"/><line style="stroke:#181818;stroke-width:0.5;stroke-dasharray:5.0,5.0;" x1="714.2671" x2="714.2671" y1="73.5938" y2="299.5234"/><rect fill="#E2E2F0" height="30.2969" rx="2.5" ry="2.5" style="stroke:#181818;stroke-width:0.5;" width="47.667" x="58.5708" y="42.2969"/><text fill="#000000" font-family="sans-serif" font-size="14" lengthAdjust="spacing" textLength="33.667" x="65.5708" y="62.292">Alice</text><rect fill="#E2E2F0" height="30.2969" rx="2.5" ry="2.5" style="stroke:#181818;stroke-width:0.5;" width="47.667" x="58.5708" y="298.5234"/><text fill="#000000" font-family="sans-serif" font-size="14" lengthAdjust="spacing" textLength="33.667" x="65.5708" y="318.5186">Alice</text><rect fill="#E2E2F0" height="30.2969" rx="2.5" ry="2.5" style="stroke:#181818;stroke-width:0.5;" width="83.1729" x="392.377" y="42.2969"/><text fill="#000000" font-family="sans-serif" font-size="14" lengthAdjust="spacing" textLength="69.1729" x="399.377" y="62.292">Controller</text><rect fill="#E2E2F0" height="30.2969" rx="2.5" ry="2.5" style="stroke:#181818;stroke-width:0.5;" width="83.1729" x="392.377" y="298.5234"/><text fill="#000000" font-family="sans-serif" font-size="14" lengthAdjust="spacing" textLength="69.1729" x="399.377" y="318.5186">Controller</text><rect fill="#E2E2F0" height="30.2969" rx="2.5" ry="2.5" style="stroke:#181818;stroke-width:0.5;" width="61.0244" x="485.5498" y="42.2969"/><text fill="#000000" font-family="sans-serif" font-size="14" lengthAdjust="spacing" textLength="47.0244" x="492.5498" y="62.292">Router</text><rect fill="#E2E2F0" height="30.2969" rx="2.5" ry="2.5" style="stroke:#181818;stroke-width:0.5;" width="61.0244" x="485.5498" y="298.5234"/><text fill="#000000" font-family="sans-serif" font-size="14" lengthAdjust="spacing" textLength="47.0244" x="492.5498" y="318.5186">Router</text><rect fill="#E2E2F0" height="30.2969" rx="2.5" ry="2.5" style="stroke:#181818;stroke-width:0.5;" width="65.7412" x="682.2671" y="42.2969"/><text fill="#000000" font-family="sans-serif" font-size="14" lengthAdjust="spacing" textLength="51.7412" x="689.2671" y="62.292">Service</text><rect fill="#E2E2F0" height="30.2969" rx="2.5" ry="2.5" style="stroke:#181818;stroke-width:0.5;" width="65.7412" x="682.2671" y="298.5234"/><text fill="#000000" font-family="sans-serif" font-size="14" lengthAdjust="spacing" textLength="51.7412" x="689.2671" y="318.5186">Service</text><polygon fill="#181818" points="421.9634,100.7266,431.9634,104.7266,421.9634,108.7266,425.9634,104.7266" style="stroke:#181818;stroke-width:1.0;"/><line style="stroke:#181818;stroke-width:1.0;" x1="82.4043" x2="427.9634" y1="104.7266" y2="104.7266"/><text fill="#000000" font-family="sans-serif" font-size="13" font-weight="bold" lengthAdjust="spacing" textLength="9.0454" x="89.4043" y="99.6606">1</text><text fill="#000000" font-family="sans-serif" font-size="13" lengthAdjust="spacing" textLength="188.3794" x="102.4497" y="99.6606">am I able to dial the service?</text><path d="M48.5708,119.7266 L113.0137,119.7266 L113.0137,126.8594 L103.0137,136.8594 L48.5708,136.8594 L48.5708,119.7266 " fill="#EEEEEE" style="stroke:#000000;stroke-width:1.5;"/><rect fill="none" height="162.7969" style="stroke:#000000;stroke-width:1.5;" width="709.4375" x="48.5708" y="119.7266"/><text fill="#000000" font-family="sans-serif" font-size="13" font-weight="bold" lengthAdjust="spacing" textLength="19.4429" x="63.5708" y="132.7935">alt</text><text fill="#000000" font-family="sans-serif" font-size="11" font-weight="bold" lengthAdjust="spacing" textLength="126.8169" x="128.0137" y="131.937">[alice is able to dial]</text><polygon fill="#181818" points="93.4043,153.9922,83.4043,157.9922,93.4043,161.9922,89.4043,157.9922" style="stroke:#181818;stroke-width:1.0;"/><line style="stroke:#181818;stroke-width:1.0;" x1="87.4043" x2="432.9634" y1="157.9922" y2="157.9922"/><text fill="#000000" font-family="sans-serif" font-size="13" font-weight="bold" lengthAdjust="spacing" textLength="9.0454" x="99.4043" y="152.9263">2</text><text fill="#000000" font-family="sans-serif" font-size="13" lengthAdjust="spacing" textLength="314.5137" x="112.4497" y="152.9263">controller returns a list of routers for the service</text><polygon fill="#181818" points="504.062,183.125,514.062,187.125,504.062,191.125,508.062,187.125" style="stroke:#181818;stroke-width:1.0;"/><line style="stroke:#181818;stroke-width:1.0;" x1="82.4043" x2="510.062" y1="187.125" y2="187.125"/><text fill="#000000" font-family="sans-serif" font-size="13" font-weight="bold" lengthAdjust="spacing" textLength="9.0454" x="89.4043" y="182.0591">3</text><text fill="#000000" font-family="sans-serif" font-size="13" lengthAdjust="spacing" textLength="363.9238" x="102.4497" y="182.0591">connects to the router with a dial request to the service</text><polygon fill="#181818" points="703.1377,212.2578,713.1377,216.2578,703.1377,220.2578,707.1377,216.2578" style="stroke:#181818;stroke-width:1.0;"/><line style="stroke:#181818;stroke-width:1.0;" x1="516.062" x2="709.1377" y1="216.2578" y2="216.2578"/><text fill="#000000" font-family="sans-serif" font-size="13" font-weight="bold" lengthAdjust="spacing" textLength="9.0454" x="523.062" y="211.1919">4</text><text fill="#000000" font-family="sans-serif" font-size="13" lengthAdjust="spacing" textLength="106.3804" x="536.1074" y="211.1919">dials the service</text><polygon fill="#181818" points="527.062,241.3906,517.062,245.3906,527.062,249.3906,523.062,245.3906" style="stroke:#181818;stroke-width:1.0;"/><line style="stroke:#181818;stroke-width:1.0;" x1="521.062" x2="714.1377" y1="245.3906" y2="245.3906"/><text fill="#000000" font-family="sans-serif" font-size="13" font-weight="bold" lengthAdjust="spacing" textLength="9.0454" x="533.062" y="240.3247">5</text><text fill="#000000" font-family="sans-serif" font-size="13" lengthAdjust="spacing" textLength="162.0303" x="546.1074" y="240.3247">returns bytes for the dial</text><polygon fill="#181818" points="93.4043,270.5234,83.4043,274.5234,93.4043,278.5234,89.4043,274.5234" style="stroke:#181818;stroke-width:1.0;"/><line style="stroke:#181818;stroke-width:1.0;" x1="87.4043" x2="515.062" y1="274.5234" y2="274.5234"/><text fill="#000000" font-family="sans-serif" font-size="13" font-weight="bold" lengthAdjust="spacing" textLength="9.0454" x="99.4043" y="269.4575">6</text><text fill="#000000" font-family="sans-serif" font-size="13" lengthAdjust="spacing" textLength="142.7969" x="112.4497" y="269.4575">relays response bytes</text><!--SRC=[LO-nKiGm34JxV8KwAduW1Gn3HSKCrz4vyOPenh6395-ulyTnaibTPKjQlLqPMm1TU9e33mnF-7Fb3qe3ZMcXjy0zdfJWVq0UrrAHPnVMkK9glQGSF7MWML8FrKBXI9ypuZSRq-0wuRvnsLBCKmTfAfIUN-WzHPCK0gGbDz47kQvOMzeiRCJXyTguOEJg7kk3h3aXAxAoM-hFfi2onB94WTNMu9AoGPI69FScPwwlAgYKYDvqzLg5so8jR6F1rP22tuo2tHK7QYEihClMQQjS7qJxwDxn2DlT36V0UkU9t6yK17VJykYSecBRQH3zFm00]--></g></svg>