<svg xmlns="http://www.w3.org/2000/svg" xmlns:xlink="http://www.w3.org/1999/xlink" contentStyleType="text/css" height="260px" preserveAspectRatio="none" style="width:901px;height:260px;background:#FFFFFF;" version="1.1" viewBox="0 0 901 260" width="901px" zoomAndPan="magnify"><title>Simplified example of cost calculation to dial Service</title><defs/><g><text fill="#000000" font-family="sans-serif" font-size="14" font-weight="bold" lengthAdjust="spacing" textLength="418.8516" x="234.1848" y="22.9951">Simplified example of cost calculation to dial Service</text><!--entity Router1--><g id="elem_Router1"><polygon fill="#F1F1F1" points="473.54,108.8469,483.54,98.8469,569.4716,98.8469,569.4716,135.1437,559.4716,145.1437,473.54,145.1437,473.54,108.8469" style="stroke:#181818;stroke-width:0.5;"/><line style="stroke:#181818;stroke-width:0.5;" x1="559.4716" x2="569.4716" y1="108.8469" y2="98.8469"/><line style="stroke:#181818;stroke-width:0.5;" x1="473.54" x2="559.4716" y1="108.8469" y2="108.8469"/><line style="stroke:#181818;stroke-width:0.5;" x1="559.4716" x2="559.4716" y1="108.8469" y2="145.1437"/><text fill="#000000" font-family="sans-serif" font-size="14" lengthAdjust="spacing" textLength="55.9316" x="488.54" y="131.842">Router1</text></g><!--entity Router2--><g id="elem_Router2"><polygon fill="#F1F1F1" points="473.54,206.8469,483.54,196.8469,569.4716,196.8469,569.4716,233.1437,559.4716,243.1437,473.54,243.1437,473.54,206.8469" style="stroke:#181818;stroke-width:0.5;"/><line style="stroke:#181818;stroke-width:0.5;" x1="559.4716" x2="569.4716" y1="206.8469" y2="196.8469"/><line style="stroke:#181818;stroke-width:0.5;" x1="473.54" x2="559.4716" y1="206.8469" y2="206.8469"/><line style="stroke:#181818;stroke-width:0.5;" x1="559.4716" x2="559.4716" y1="206.8469" y2="243.1437"/><text fill="#000000" font-family="sans-serif" font-size="14" lengthAdjust="spacing" textLength="55.9316" x="488.54" y="229.842">Router2</text></g><!--entity Service--><g id="elem_Service"><polygon fill="#F1F1F1" points="792.48,158.8469,802.48,148.8469,884.2212,148.8469,884.2212,185.1438,874.2212,195.1438,792.48,195.1438,792.48,158.8469" style="stroke:#181818;stroke-width:0.5;"/><line style="stroke:#181818;stroke-width:0.5;" x1="874.2212" x2="884.2212" y1="158.8469" y2="148.8469"/><line style="stroke:#181818;stroke-width:0.5;" x1="792.48" x2="874.2212" y1="158.8469" y2="158.8469"/><line style="stroke:#181818;stroke-width:0.5;" x1="874.2212" x2="874.2212" y1="158.8469" y2="195.1438"/><text fill="#000000" font-family="sans-serif" font-size="14" lengthAdjust="spacing" textLength="51.7412" x="807.48" y="181.842">Service</text></g><!--entity User--><g id="elem_User"><ellipse cx="135.7751" cy="142.3469" fill="#F1F1F1" rx="8" ry="8" style="stroke:#181818;stroke-width:0.5;"/><path d="M135.7751,150.3469 L135.7751,177.3469 M122.7751,158.3469 L148.7751,158.3469 M135.7751,177.3469 L122.7751,192.3469 M135.7751,177.3469 L148.7751,192.3469 " fill="none" style="stroke:#181818;stroke-width:0.5;"/><text fill="#000000" font-family="sans-serif" font-size="14" lengthAdjust="spacing" textLength="31.9102" x="119.82" y="206.842">User</text></g><g id="elem_GMN11"><path d="M6,43.2969 L6,98.6953 A0,0 0 0 0 6,98.6953 L131.77,98.6953 L135.77,133.7269 L139.77,98.6953 L265.5449,98.6953 A0,0 0 0 0 265.5449,98.6953 L265.5449,53.2969 L255.5449,43.2969 L6,43.2969 A0,0 0 0 0 6,43.2969 " fill="#FEFFDD" style="stroke:#181818;stroke-width:0.5;"/><path d="M255.5449,43.2969 L255.5449,53.2969 L265.5449,53.2969 L255.5449,43.2969 " fill="#FEFFDD" style="stroke:#181818;stroke-width:0.5;"/><text fill="#000000" font-family="sans-serif" font-size="13" lengthAdjust="spacing" textLength="168.3843" x="12" y="60.3638">Connection to the Service</text><text fill="#000000" font-family="sans-serif" font-size="13" lengthAdjust="spacing" textLength="196.0601" x="12" y="75.4966">would go through the Router2</text><text fill="#000000" font-family="sans-serif" font-size="13" lengthAdjust="spacing" textLength="238.5449" x="12" y="90.6294">as the total-cost of it would be 25ms</text></g><!--link Router1 to Service--><g id="link_Router1_Service"><path d="M569.64,129.4869 C629.77,139.0369 727.1043,154.4853 786.2643,163.8853 " fill="none" id="Router1-to-Service" style="stroke:#181818;stroke-width:1.0;"/><polygon fill="#181818" points="792.19,164.8269,783.9292,159.4641,787.2519,164.0423,782.6738,167.365,792.19,164.8269" style="stroke:#181818;stroke-width:1.0;"/><text fill="#000000" font-family="sans-serif" font-size="13" lengthAdjust="spacing" textLength="161.8145" x="600.48" y="131.4738">ping 40ms to the service</text></g><!--link Router2 to Service--><g id="link_Router2_Service"><path d="M569.75,216.9469 C618.4,213.2769 696.23,205.9269 762.48,192.9969 C772.15,191.1069 776.5987,190.1555 786.3087,187.5255 " fill="none" id="Router2-to-Service" style="stroke:#181818;stroke-width:1.0;"/><polygon fill="#181818" points="792.1,185.9569,782.3673,184.4489,787.2739,187.264,784.4587,192.1707,792.1,185.9569" style="stroke:#181818;stroke-width:1.0;"/><text fill="#000000" font-family="sans-serif" font-size="13" lengthAdjust="spacing" textLength="161.8145" x="600.48" y="189.0638">ping 20ms to the service</text></g><!--link Router1 to Router2--><g id="link_Router1_Router2"><path d="M521.51,151.3969 C521.51,166.9369 521.51,175.2669 521.51,190.7769 " fill="none" id="Router1-Router2" style="stroke:#181818;stroke-width:1.0;stroke-dasharray:7.0,7.0;"/><polygon fill="#181818" points="521.51,145.3969,517.51,154.3969,521.51,150.3969,525.51,154.3969,521.51,145.3969" style="stroke:#181818;stroke-width:1.0;"/><polygon fill="#181818" points="521.51,196.7769,525.51,187.7769,521.51,191.7769,517.51,187.7769,521.51,196.7769" style="stroke:#181818;stroke-width:1.0;"/><text fill="#000000" font-family="sans-serif" font-size="13" lengthAdjust="spacing" textLength="246.2827" x="387.01" y="175.5638">interconnection between routers(link)</text></g><!--link User to Router1--><g id="link_User_Router1"><path d="M151.82,170.0369 C205.1,163.0969 380.3303,140.2622 467.2703,128.9322 " fill="none" id="User-to-Router1" style="stroke:#181818;stroke-width:1.0;"/><polygon fill="#181818" points="473.22,128.1569,463.7786,125.3535,468.2619,128.803,464.8124,133.2864,473.22,128.1569" style="stroke:#181818;stroke-width:1.0;"/><text fill="#000000" font-family="sans-serif" font-size="13" lengthAdjust="spacing" textLength="146.9546" x="296.54" y="128.8638">ping 2ms to the router</text></g><!--link User to Router2--><g id="link_User_Router2"><path d="M152.09,174.0869 C180.41,177.9369 242.86,186.3569 295.54,192.9969 C356.82,200.7269 421.591,208.4268 467.131,213.7768 " fill="none" id="User-to-Router2" style="stroke:#181818;stroke-width:1.0;"/><polygon fill="#181818" points="473.09,214.4769,464.6182,209.4541,468.1242,213.8935,463.6848,217.3995,473.09,214.4769" style="stroke:#181818;stroke-width:1.0;"/><text fill="#000000" font-family="sans-serif" font-size="13" lengthAdjust="spacing" textLength="146.9546" x="296.54" y="189.0638">ping 5ms to the router</text></g><!--SRC=[TP5DRiGW38NtdE8jsqMgJjHkHjLiUeCPzG0CE8bL1Y9mEZr-8G5DrPyLsFwUdp6E1e44H1udWUL8HZXu9IoESEBBx7XWig1FdU-4CC24933QcSNf0XUzPUrmelZ1XfJomHAEOH6Ak-z1lmMDqqP2n5kYg2gChZkqyXup-n5FZvTK76GYf2gitVwW-t_f7LuU3csEFTZdqmJljmVZJ78byeWhaEuS-_TxLMPRNMgFvd8psVYVO5_1vrzWte1GpitgzMPUaRQNQrYSnLYIMJLEQx5jKASrb23QTUjNv2zXmIOw4_figiXR5ASl]--></g></svg>